<svg id="Layer_1" enable-background="new 0 0 64 64" height="512" viewBox="0 0 64 64" width="512" xmlns="http://www.w3.org/2000/svg"><path d="m57 2h-50c-2.8 0-5 2.2-5 5v36c0 2.8 2.2 5 5 5h17.8l-1.6 8h-2.2c-1.7 0-3 1.3-3 3s1.3 3 3 3h22c1.7 0 3-1.3 3-3s-1.3-3-3-3h-2.2l-1.6-8h17.8c2.8 0 5-2.2 5-5v-36c0-2.8-2.2-5-5-5zm-50 2h50c1.7 0 3 1.3 3 3v33h-56v-33c0-1.7 1.3-3 3-3zm37 55c0 .6-.4 1-1 1h-22c-.6 0-1-.4-1-1s.4-1 1-1h22c.6 0 1 .4 1 1zm-5.2-3h-13.6l1.6-8h10.4zm18.2-10h-50c-1.7 0-3-1.3-3-3v-1h56v1c0 1.7-1.3 3-3 3z"/><path d="m16.5 30.6c.6 1.1 1.6 1.8 2.8 2.1.9.2 1.8.4 2.7.3 1.3 0 2.6-.2 3.9-.5 1.5 3.4 3.6 5.5 6.1 5.5s4.6-2.1 6.1-5.5c1.3.3 2.6.4 3.9.5.9 0 1.8-.1 2.7-.3 1.2-.3 2.2-1 2.8-2.1 1.2-2.2 0-5.4-2.9-8.6 2.9-3.2 4.1-6.3 2.9-8.6-.6-1.1-1.6-1.8-2.8-2.1-2.2-.5-4.5-.4-6.6.1-1.5-3.3-3.7-5.4-6.1-5.4s-4.6 2.1-6.1 5.5c-2.2-.6-4.4-.6-6.6-.1-1.2.3-2.2 1-2.8 2.1-1.2 2.2 0 5.4 2.9 8.6-2.9 3.1-4.1 6.2-2.9 8.5zm15.5 5.4c-1.4 0-2.9-1.5-4.1-4 1.4-.4 2.8-.9 4.1-1.5 1.3.6 2.7 1.1 4.1 1.5-1.2 2.5-2.7 4-4.1 4zm-6-14c0-1 .1-2.1.2-3.1 1-.7 2-1.3 3.1-1.9.9-.5 1.8-.9 2.7-1.4.9.4 1.8.9 2.7 1.4 1.1.6 2.1 1.3 3.1 1.9.2 2.1.2 4.2 0 6.2-1 .7-2 1.3-3.1 1.9-.9.5-1.8 1-2.7 1.4-.9-.4-1.8-.9-2.7-1.4-1.1-.6-2.1-1.3-3.1-1.9-.1-1-.2-2.1-.2-3.1zm-2 1.6c-.7-.5-1.3-1-1.8-1.6.6-.5 1.2-1 1.8-1.6v1.6s0 1.1 0 1.6zm2.6-7.3c.2-.8.4-1.6.6-2.4.8.2 1.5.5 2.3.8-.4.2-.8.4-1.2.6-.6.3-1.2.6-1.7 1zm7.9-1.7c.8-.3 1.6-.5 2.3-.8.3.8.5 1.6.6 2.4-.6-.3-1.1-.7-1.7-1-.4-.2-.8-.4-1.2-.6zm5.5 5.8c.7.5 1.3 1 1.8 1.6-.6.5-1.2 1-1.8 1.6 0-.5 0-1 0-1.6s0-1.1 0-1.6zm-2.6 7.3c-.2.8-.4 1.6-.6 2.4-.8-.2-1.5-.5-2.3-.8l1.2-.6c.6-.3 1.2-.6 1.7-1zm-9.1 1.1c.4.2.8.4 1.2.6-.8.3-1.6.6-2.3.8-.3-.8-.5-1.6-.6-2.4.5.3 1.1.6 1.7 1zm17.5.8c-.4.6-1 1-1.6 1.1-1.8.4-3.6.4-5.4-.1.4-1.4.8-2.9 1-4.4 1.2-.9 2.4-1.8 3.5-2.8 2.2 2.6 3.2 4.9 2.5 6.2zm-3.9-16.6c.7 0 1.5.1 2.2.3.7.1 1.3.6 1.6 1.1.7 1.3-.2 3.6-2.6 6.2-1.1-1-2.3-2-3.5-2.8-.2-1.5-.5-3-1-4.4 1.2-.3 2.3-.4 3.3-.4zm-9.9-5c1.4 0 2.9 1.5 4.1 4-1.4.4-2.8.9-4.1 1.5-1.3-.6-2.7-1.1-4.1-1.5 1.2-2.5 2.7-4 4.1-4zm-13.8 6.4c.4-.6 1-1 1.6-1.1.7-.2 1.4-.3 2.2-.3 1.1 0 2.1.1 3.2.4-.4 1.4-.8 2.9-1 4.4-1.2.9-2.4 1.8-3.5 2.8-2.2-2.6-3.2-4.9-2.5-6.2zm2.6 9c1.1 1 2.3 2 3.5 2.8.2 1.5.5 3 1 4.4-1.8.4-3.6.5-5.4.1-.7-.1-1.3-.6-1.6-1.1-.8-1.3.2-3.6 2.5-6.2z"/><path d="m32 25c1.7 0 3-1.3 3-3s-1.3-3-3-3-3 1.3-3 3 1.3 3 3 3zm0-4c.6 0 1 .4 1 1s-.4 1-1 1-1-.4-1-1 .4-1 1-1z"/><path d="m53 7h2v2h-2z"/><path d="m55 9h2v2h-2z"/><path d="m53 11h2v2h-2z"/><path d="m51 9h2v2h-2z"/><path d="m11 31h2v2h-2z"/><path d="m13 33h2v2h-2z"/><path d="m11 35h2v2h-2z"/><path d="m9 33h2v2h-2z"/><path d="m51 19h2v2h-2z"/><path d="m53 21h2v2h-2z"/><path d="m51 23h2v2h-2z"/><path d="m49 21h2v2h-2z"/><path d="m12 9h2v2h-2z"/><path d="m7 18h2v2h-2z"/><path d="m49 35h2v2h-2z"/></svg>